<svg width="40" height="40" viewBox="0 0 40 40" fill="none" xmlns="http://www.w3.org/2000/svg">
    <rect width="40" height="40" rx="10.2539" fill="#3E474E"/>
    <path d="M14.1434 32.7344C12.6713 32.7344 11.25 31.4157 11.25 29.0933V10.8286C11.25 8.50618 12.6713 7.1875 14.1434 7.1875C14.8371 7.1875 15.4462 7.48273 16.4107 8.01413L31.6559 16.4182C33.0433 17.1858 33.9063 18.3864 33.9063 19.9609C33.9063 21.5355 33.0433 22.7361 31.6559 23.5036L16.4107 31.9077C15.4462 32.4391 14.8371 32.7344 14.1434 32.7344Z" fill="#51C74A"/>
    <rect x="2.1875" y="19.2969" width="7.34375" height="1.40625" rx="0.703125" fill="#51C74A"/>
    <rect x="3.125" y="15.7031" width="6.40625" height="1.40625" rx="0.703125" fill="#51C74A"/>
    <rect x="4.84375" y="22.8906" width="4.6875" height="1.40625" rx="0.703125" fill="#51C74A"/>
</svg>
