<?xml version="1.0" encoding="UTF-8"?>
<svg width="16px" height="16px" viewBox="0 0 16 16" version="1.1" xmlns="http://www.w3.org/2000/svg" xmlns:xlink="http://www.w3.org/1999/xlink">
    <title>编组</title>
    <g id="页面-1" stroke="none" stroke-width="1" fill="none" fill-rule="evenodd">
        <g id="编组">
            <path d="M3.20203304,11 L2.53722999,9.4 L1.88055909,11 L3.20203304,11 Z M2.14383736,8 L2.93773825,8 L5.08259212,13 L3.96442186,13 L3.45616264,12 L1.62642948,12 L1.11817027,13 L0,13 L2.14383736,8 Z" id="形状" fill-opacity="0.7" fill="#EAEAEA" fill-rule="nonzero"></path>
            <path d="M7.52562474,9 L7.52562474,12 L8.06752928,12 C8.96951041,12 9.55866158,11.3757353 9.55866158,10.5132353 L9.55866158,10.5 C9.55866158,9.63676471 8.96951041,9 8.06752928,9 L7.52562474,9 Z M6.50910631,8 L7.98265142,8 C9.51637442,8 10.57518,9.07916667 10.57518,10.485 L10.57518,10.5 C10.57518,11.9075 9.51637442,13 7.98265142,13 L6.50910631,13 L6.50910631,8 Z" id="形状" fill-opacity="0.7" fill="#EAEAEA" fill-rule="nonzero"></path>
            <path d="M14.1314304,11 L12.9504447,11 L12.9504447,12 L14.1839494,12 C14.6814975,12 14.9834816,11.828068 14.9834816,11.4993925 L14.9834816,11.4896719 C14.9834816,11.18226 14.7049928,11 14.1307394,11 L14.1314304,11 Z M14.9834816,9.47834275 C14.9834816,9.1826742 14.6889289,9 14.1621627,9 L12.9504447,9 L12.9504447,10 L14.1021613,10 C14.6289274,10 14.9827023,9.83364721 14.9827023,9.48901444 L14.9827023,9.47834275 L14.9834816,9.47834275 Z M11.9339263,8 L14.1232254,8 C14.6823512,8 15.1218388,8.1575 15.4009947,8.44333333 C15.6166692,8.66416667 15.7281688,8.935 15.7281688,9.27083333 L15.7281688,9.28583333 C15.7281688,9.88583333 15.39367,10.2075 15.0314997,10.4 C15.6028335,10.6 16,10.9366667 16,11.6141667 L16,11.6291667 C16,12.5208333 15.2813565,13 14.1932179,13 L11.9339263,13 L11.9339263,8 Z" id="形状" fill-opacity="0.7" fill="#EAEAEA" fill-rule="nonzero"></path>
            <path d="M6.38449828,2.125375 C7.0157979,1.8766317 7.6897049,1.74920868 8.3697584,1.75 C9.06975827,1.75 9.73951673,1.883 10.3514607,2.123625 L11.5984745,0 L12.3687412,0.4375 L11.148411,2.5165 C12.7380627,3.46939396 13.7076233,5.16873295 13.7064802,7 L3.03303672,7 C3.0319472,5.16988117 4.00035007,3.47146217 5.58843743,2.51825 L4.36721783,0.4375 L5.13748452,0 L6.38449828,2.125375 Z M5.70139758,4.375 L5.70139758,5.25 L6.5908512,5.25 L6.5908512,4.375 L5.70139758,4.375 Z M10.1486657,4.375 L10.1486657,5.25 L11.0381193,5.25 L11.0381193,4.375 L10.1486657,4.375 Z" id="形状" fill="#3DDC84"></path>
            <rect id="frame" x="0" y="0" width="16" height="16"></rect>
        </g>
    </g>
</svg>