<svg width="16" height="16" viewBox="0 0 16 16" fill="none" xmlns="http://www.w3.org/2000/svg">
<path d="M8.74159 7.52789H6.96932L5.83086 9.62504H9.55761L8.74159 7.52789Z" fill="#CED0D6"/>
<path d="M12.7491 9.62504H15.0007V7.52789H11.933L12.7491 9.62504Z" fill="#CED0D6"/>
<path d="M1.00073 7.52789H3.61378L2.47532 9.62504H1.00073V7.52789Z" fill="#CED0D6"/>
<path d="M5.03279 6.07086L2.20176 11.8372L2.13916 14.0231L3.76535 12.5199L6.60535 6.73529L5.03279 6.07086Z" fill="#CED0D6"/>
<path d="M5.3921 5.339L6.96466 6.00342L7.38711 5.14297C7.62957 4.64912 7.44452 4.17881 7.03511 4.00005C6.59678 3.80866 6.09227 3.91286 5.7899 4.52874L5.3921 5.339Z" fill="#CED0D6"/>
<path d="M11.213 12.54C11.2146 12.5441 11.2153 12.5462 11.2153 12.5462C11.639 13.6819 12.7189 14.3434 13.6275 13.8138C13.6275 13.8138 13.3322 13.0146 12.8906 11.8194L11.213 12.54Z" fill="#CED0D6"/>
<path d="M10.8484 11.5576L12.5273 10.8365C11.189 7.21492 9.09326 1.54574 8.98749 1.2702C8.91076 1.07031 8.35603 0.936236 7.93641 1.10951C7.51575 1.2832 7.1952 1.72886 7.27193 1.92875C7.33407 2.09062 9.88157 8.95305 10.8484 11.5576Z" fill="#CED0D6"/>
</svg>
