<?xml version="1.0" encoding="UTF-8"?>
<svg width="16px" height="16px" viewBox="0 0 16 16" version="1.1" xmlns="http://www.w3.org/2000/svg" xmlns:xlink="http://www.w3.org/1999/xlink">
    <title>icon_256x256_vectorized</title>
    <g id="页面-1" stroke="none" stroke-width="1" fill="none" fill-rule="evenodd">
        <g id="icon_256x256_vectorized" fill-rule="nonzero">
            <path d="M3.25,15.9375 C2,15.8125 1,15.125 0.5,14.1875 C0,13.25 0,13.125 0,8 C0,2.875 0,2.75 0.5,1.8125 C0.75,1.3125 1.3125,0.75 1.75,0.5 C2.75,0 2.875,0 8,0 C13.125,0 13.25,0 14.25,0.5 C14.6875,0.75 15.25,1.3125 15.5,1.8125 C16,2.75 16,2.875 16,8 C16,13.125 16,13.25 15.5,14.1875 C14.9375,15.1875 14,15.8125 12.6875,15.9375 C12,16 3.9375,16 3.25,15.9375 Z" id="路径" fill="#FFFFFF"></path>
            <path d="M4.4375,12.6875 C4.5,12.625 4.75,12.25 4.9375,11.9375 L5.25,11.375 L5.0625,11.1875 C4.8125,10.9375 4.4375,10.875 4.125,10.9375 C3.875,10.9375 3.875,11 3.625,11.375 C3.1875,12.125 3.1875,12.375 3.5,12.6875 C3.625,12.8125 3.75,12.875 4,12.875 C4.1875,12.875 4.3125,12.8125 4.4375,12.6875 Z M12.5,12.6875 C12.8125,12.375 12.8125,12.125 12.375,11.3125 C12.1875,11 12,10.6875 12,10.6875 L12,10.625 L12.625,10.625 C13.1875,10.625 13.25,10.5625 13.4375,10.4375 C13.625,10.1875 13.6875,9.9375 13.625,9.6875 C13.4375,9.25 13.3125,9.25 12.125,9.1875 C11.125,9.1875 11.125,9.1875 10.1875,7.5 C9.625,6.625 9.1875,5.8125 9.125,5.75 L9,5.625 L8.8125,5.875 C8.4375,6.5 8.4375,7.1875 8.75,7.8125 C9.0625,8.5625 11.4375,12.5625 11.625,12.75 C11.8125,12.9375 12.25,12.9375 12.5,12.6875 Z M9.5625,10.4375 C9.75,10.0625 9.375,9.375 8.875,9.25 C8.75,9.1875 8.1875,9.1875 7.625,9.1875 L6.5625,9.1875 L6.5625,9.125 C6.5625,9.125 7.1875,8 8,6.625 C8.75,5.25 9.4375,4.0625 9.5,3.9375 C9.8125,3.4375 9.4375,2.875 8.9375,2.9375 C8.625,2.9375 8.4375,3.0625 8.1875,3.4375 L8,3.75 L7.75,3.375 C7.4375,2.875 6.9375,2.75 6.5625,3.1875 C6.3125,3.4375 6.3125,3.75 6.8125,4.5 C7.1875,5.1875 7.1875,5.1875 6.0625,7.1875 C4.875,9.1875 4.875,9.1875 3.875,9.1875 C2.6875,9.25 2.5625,9.25 2.375,9.6875 C2.25,10 2.4375,10.4375 2.8125,10.5625 C2.875,10.625 4.375,10.625 6.1875,10.625 L9.5,10.625 L9.5625,10.4375 Z" id="形状" fill="#22AEF9"></path>
        </g>
    </g>
</svg>