<svg xmlns="http://www.w3.org/2000/svg" width="16" height="16" viewBox="0 0 64 64">
    <path d="M46.167,15.2l4.674-8.1a1.373,1.373,0,0,0,.19-.7,1.4,1.4,0,0,0-2.615-.7l-4.752,8.231A28.6,28.6,0,0,0,32,11.542a28.6,28.6,0,0,0-11.664,2.39L15.584,5.7a1.4,1.4,0,0,0-2.615.7,1.373,1.373,0,0,0,.19.7l4.674,8.1C9.06,20.225,4.31,29.508,4,37H60C59.69,29.508,54.94,20.225,46.167,15.2ZM18,30a2.652,2.652,0,0,1-3-3,2.652,2.652,0,0,1,3-3,2.652,2.652,0,0,1,3,3A2.652,2.652,0,0,1,18,30Zm28,0a2.652,2.652,0,0,1-3-3,2.652,2.652,0,0,1,3-3,2.652,2.652,0,0,1,3,3A2.652,2.652,0,0,1,46,30Z" fill="#3ddc84" fill-opacity=".8"/>
    <path d="M24.779 56h2.09L22.14 43H20L15.265 56h2.09l1.2-3.532h5.025zM19.1 50.874l1.951-5.739h.045l1.946 5.739zM33.131 43H28.3V56h1.99V51.541h2.839a4.077 4.077 0 004.305-4.271v-.018A4.064 4.064 0 0033.131 43zm2.278 4.288a2.452 2.452 0 01-2.774 2.586H30.292V44.685h2.343c1.8 0 2.774.967 2.774 2.585zM46.842 56L49.31 56 43.952 48.746 48.877 43 46.518 43 41.247 49.234 41.193 49.234 41.193 43 39.203 43 39.203 56 41.193 56 41.193 51.648 42.527 50.115 46.842 56z" fill="#6E6E6E"/>
</svg>
