<svg width="16" height="16" viewBox="0 0 16 16" fill="none" xmlns="http://www.w3.org/2000/svg">
<rect x="1.5" y="1.5" width="13" height="13" rx="6.5" fill="#FFF5F5" stroke="#E35252"/>
<path d="M5.46935 10.6096C5.91478 10.8696 6.41417 10.9997 6.9675 10.9997C7.43783 10.9997 7.87358 10.9015 8.27475 10.705C8.67592 10.5086 9.001 10.2458 9.25 9.91653C9.499 9.5873 9.64148 9.2304 9.67745 8.84583H8.59845C8.54865 9.0478 8.4449 9.23731 8.2872 9.41438C8.13227 9.59145 7.9386 9.73393 7.7062 9.84183C7.4738 9.94696 7.22618 9.99953 6.96335 9.99953C6.62028 9.99953 6.3118 9.91376 6.0379 9.74223C5.76677 9.57069 5.55373 9.33276 5.3988 9.02843C5.24387 8.7241 5.1664 8.37964 5.1664 7.99508C5.1664 7.61051 5.24387 7.26606 5.3988 6.96173C5.55373 6.6574 5.76677 6.41946 6.0379 6.24793C6.3118 6.0764 6.62028 5.99063 6.96335 5.99063C7.22618 5.99063 7.4738 6.04458 7.7062 6.15248C7.9386 6.26038 8.13227 6.40425 8.2872 6.58408C8.4449 6.76114 8.54865 6.95343 8.59845 7.16093H9.67745C9.64148 6.7736 9.499 6.41393 9.25 6.08193C9.001 5.74993 8.67592 5.48571 8.27475 5.28928C7.87358 5.09008 7.43783 4.99048 6.9675 4.99048C6.41417 4.99048 5.91478 5.12051 5.46935 5.38058C5.02392 5.64065 4.67532 5.99893 4.42355 6.45543C4.17178 6.91193 4.0459 7.42514 4.0459 7.99508C4.0459 8.56501 4.17178 9.07823 4.42355 9.53473C4.67532 9.99123 5.02392 10.3495 5.46935 10.6096Z" fill="#E35252"/>
<path d="M10.179 6.03671L11.1125 5.67834L12.0053 8.00415L12.0097 8.00583L12.0078 8.0107L12.0085 8.0123L12.007 8.01285L11.1138 10.3398L10.1802 9.98142L10.9367 8.0107L10.179 6.03671Z" fill="#E35252"/>
</svg>
