<svg width="16" height="16" viewBox="0 0 16 16" fill="none" xmlns="http://www.w3.org/2000/svg">
    <path d="M6.63935 1.69205C6.0282 1.82794 5.42367 2.01706 4.85695 2.30234C4.86991 2.80282 4.90228 3.28234 4.96788 3.76949C4.74772 3.9105 4.51641 4.03151 4.31081 4.19658C4.10191 4.35727 3.88857 4.51103 3.69945 4.69898C3.32159 4.44906 2.92164 4.21418 2.50959 4.00687C2.06548 4.48479 1.65023 5.00069 1.31097 5.57791C1.56623 5.99077 1.83263 6.37775 2.12031 6.74501H2.12836V10.288C2.13487 10.288 2.14132 10.2883 2.14772 10.289L4.31983 10.4983C4.37491 10.5037 4.42633 10.5283 4.46493 10.568C4.50353 10.6077 4.52682 10.6597 4.53065 10.7149L4.59764 11.6738L6.49236 11.809L6.62287 10.924C6.63105 10.8685 6.65892 10.8177 6.70141 10.7811C6.74389 10.7444 6.79815 10.7242 6.85428 10.7242H9.14585C9.20196 10.7242 9.2562 10.7444 9.29866 10.7811C9.34112 10.8178 9.36898 10.8685 9.37716 10.924L9.50772 11.809L11.4024 11.6738L11.4693 10.7149C11.4732 10.6597 11.4965 10.6077 11.5351 10.568C11.5737 10.5284 11.6251 10.5037 11.6802 10.4984L13.8514 10.289C13.8578 10.2883 13.8642 10.2881 13.8707 10.288V10.0053L13.8716 10.0051V6.74517H13.8796C14.1674 6.37791 14.4336 5.99093 14.689 5.57807C14.3499 5.00079 13.9343 4.4849 13.4903 4.00698C13.0784 4.21434 12.6783 4.44917 12.3004 4.69914C12.1113 4.51119 11.8983 4.35743 11.6892 4.19674C11.4836 4.03167 11.252 3.91061 11.0324 3.76959C11.0977 3.2825 11.1301 2.80298 11.1431 2.3025C10.5763 2.01717 9.97183 1.82805 9.36041 1.69221C9.11631 2.1025 8.89305 2.54677 8.69865 2.98111C8.46809 2.94261 8.23647 2.92831 8.00452 2.92554V2.92517C8.00292 2.92517 8.00143 2.92554 8.00004 2.92554C7.9986 2.92554 7.99711 2.92517 7.99567 2.92517V2.92554C7.76329 2.92831 7.53188 2.94261 7.30127 2.98111C7.10692 2.54677 6.88383 2.1025 6.6394 1.69221L6.63935 1.69205ZM4.92095 6.87493C5.64393 6.87493 6.22991 7.46042 6.22991 8.18319C6.22991 8.90639 5.64393 9.49231 4.92095 9.49231C4.19828 9.49231 3.61215 8.90639 3.61215 8.18319C3.61215 7.46047 4.19828 6.87493 4.92095 6.87493ZM11.0792 6.87493C11.8017 6.87493 12.3878 7.46042 12.3878 8.18319C12.3878 8.90639 11.8017 9.49231 11.0792 9.49231C10.3561 9.49231 9.77007 8.90639 9.77007 8.18319C9.77007 7.46047 10.356 6.87493 11.0792 6.87493ZM7.99993 7.64053C8.23263 7.64053 8.42164 7.81221 8.42164 8.02346V9.22847C8.42164 9.43989 8.23263 9.61141 7.99993 9.61141C7.76724 9.61141 7.5786 9.43983 7.5786 9.22847V8.02341C7.5786 7.81221 7.76719 7.64053 7.99993 7.64053Z" fill="#4FC3F7"/>
    <path d="M11.9221 10.945L11.8548 11.9089C11.8509 11.9651 11.8268 12.018 11.787 12.0578C11.7472 12.0977 11.6943 12.1219 11.6381 12.1259L9.32453 12.2909C9.26569 12.2951 9.20745 12.2769 9.16146 12.24C9.11547 12.203 9.08513 12.1501 9.07653 12.0917L8.94383 11.192H7.05599L6.9233 12.0917C6.91474 12.1501 6.88442 12.2031 6.83842 12.2401C6.79243 12.277 6.73415 12.2952 6.6753 12.291L4.3617 12.1259C4.3055 12.1219 4.25263 12.0977 4.21281 12.0579C4.17299 12.018 4.1489 11.9651 4.14495 11.9089L4.07775 10.945L2.12463 10.7567C2.12554 10.9666 2.12821 11.1965 2.12821 11.2424C2.12821 13.3051 4.7449 14.2965 7.99583 14.308H8.00383C11.2548 14.2965 13.8705 13.305 13.8705 11.2424C13.8705 11.1957 13.8734 10.9667 13.8743 10.7567L11.9221 10.945Z" fill="#4FC3F7"/>
</svg>
