<svg width="16" height="16" viewBox="0 0 16 16" fill="none" xmlns="http://www.w3.org/2000/svg">
    <path d="M14.3631 10.518C14.3631 10.518 14.342 10.3883 14.3296 10.3895L11.9763 10.6165C11.7891 10.6346 11.6436 10.784 11.6305 10.9716L11.5658 11.8982L9.74523 12.0281L9.62139 11.1883C9.59381 11.0015 9.43069 10.8607 9.24187 10.8607H6.7581C6.56935 10.8607 6.40623 11.0015 6.37865 11.1883L6.25475 12.0281L4.43412 11.8982L4.36947 10.9716C4.35634 10.7839 4.2109 10.6346 4.02365 10.6165L1.66917 10.3895C1.65701 10.3883 1.6481 10.5181 1.63594 10.5181L1.63275 11.0274L3.62677 11.349L3.69207 12.2839C3.70528 12.4731 3.85799 12.6262 4.04739 12.6398L6.55478 12.8186C6.56427 12.8193 6.57364 12.8197 6.58301 12.8197C6.77143 12.8197 6.93429 12.6788 6.96187 12.492L7.08928 11.6279H8.91075L9.03817 12.492C9.06568 12.6787 9.22874 12.8196 9.41742 12.8196C9.42666 12.8196 9.43589 12.8193 9.44493 12.8186L11.9526 12.6398C12.142 12.6262 12.2948 12.4731 12.308 12.2839L12.3732 11.349L14.3664 11.026L14.3631 10.518Z" fill="white"/>
    <path d="M1.63592 6.67796V9.7683V10.1608V10.518C1.64295 10.5181 1.64997 10.5184 1.65693 10.519L4.01115 10.746C4.13446 10.7579 4.23111 10.8572 4.2397 10.9807L4.31228 12.02L6.36588 12.1665L6.50735 11.2073C6.52569 11.083 6.63235 10.9908 6.75814 10.9908H9.24192C9.36765 10.9908 9.47431 11.083 9.49265 11.2073L9.63412 12.1665L11.6878 12.02L11.7603 10.9807C11.769 10.8572 11.8655 10.758 11.9889 10.746L14.3422 10.519C14.3491 10.5184 14.3561 10.5181 14.3631 10.518V10.2116L14.3641 10.2113V6.67796H14.3728C14.6847 6.27991 14.9733 5.86046 15.25 5.41298C14.8825 4.78729 14.4321 4.22813 13.9507 3.71008C13.5043 3.9348 13.0707 4.18936 12.6611 4.46026C12.4562 4.25655 12.2253 4.08992 11.9986 3.91574C11.7758 3.73681 11.5248 3.60562 11.2867 3.45278C11.3576 2.92484 11.3926 2.4051 11.4067 1.86266C10.7924 1.55346 10.1372 1.34845 9.47451 1.2012C9.20992 1.64588 8.96797 2.12744 8.75724 2.59821C8.50735 2.55645 8.25629 2.54097 8.00491 2.53798V2.53759C8.00315 2.53759 8.00153 2.53798 8.00003 2.53798C7.99847 2.53798 7.99685 2.53759 7.99528 2.53759V2.53798C7.74345 2.54097 7.49258 2.55645 7.24263 2.59821C7.03203 2.12744 6.79021 1.64588 6.52523 1.2012C5.86286 1.34845 5.20764 1.55346 4.59333 1.86266C4.60737 2.4051 4.64243 2.92484 4.71352 3.45278C4.47495 3.60562 4.22422 3.73681 4.00139 3.91574C3.77498 4.08992 3.54376 4.25655 3.33875 4.46026C2.92919 4.18936 2.4957 3.9348 2.04912 3.71008C1.56776 4.22813 1.11768 4.78729 0.75 5.41298C1.02662 5.86046 1.3154 6.27991 1.62721 6.67796H1.63592Z" fill="#478CBF"/>
    <path d="M12.2511 11.2301L12.1782 12.2748C12.1694 12.4007 12.0692 12.501 11.9433 12.51L9.43568 12.6889C9.42957 12.6894 9.42345 12.6896 9.4174 12.6896C9.29278 12.6896 9.18527 12.5981 9.16687 12.473L9.02306 11.4978H6.97694L6.83314 12.473C6.81382 12.6042 6.69649 12.6986 6.56432 12.6889L4.05668 12.51C3.93076 12.501 3.83059 12.4007 3.82181 12.2748L3.7489 11.2301L1.63202 11.026C1.63299 11.2535 1.63592 11.5027 1.63592 11.5523C1.63592 13.7881 4.47203 14.8627 7.99568 14.875H7.99997H8.00433C11.528 14.8627 14.3631 13.7881 14.3631 11.5523C14.3631 11.5018 14.3662 11.2536 14.3672 11.026L12.2511 11.2301Z" fill="#478CBF"/>
    <path d="M6.08148 8.23674C6.08148 9.02062 5.44635 9.65561 4.66274 9.65561C3.87952 9.65561 3.2442 9.02062 3.2442 8.23674C3.2442 7.45339 3.87952 6.81872 4.66274 6.81872C5.44635 6.81872 6.08148 7.45339 6.08148 8.23674Z" fill="white"/>
    <path d="M5.74008 8.32092C5.74008 8.84085 5.31868 9.26225 4.79835 9.26225C4.27829 9.26225 3.85663 8.84085 3.85663 8.32092C3.85663 7.80098 4.27829 7.37919 4.79835 7.37919C5.31868 7.37919 5.74008 7.80098 5.74008 8.32092Z" fill="#414042"/>
    <path d="M7.99993 9.78467C7.7477 9.78467 7.54327 9.59878 7.54327 9.36964V8.06356C7.54327 7.83461 7.7477 7.64853 7.99993 7.64853C8.25215 7.64853 8.45703 7.83461 8.45703 8.06356V9.36964C8.45703 9.59878 8.25215 9.78467 7.99993 9.78467Z" fill="white"/>
    <path d="M9.91852 8.23674C9.91852 9.02062 10.5536 9.65561 11.3374 9.65561C12.1205 9.65561 12.7558 9.02062 12.7558 8.23674C12.7558 7.45339 12.1205 6.81872 11.3374 6.81872C10.5536 6.81872 9.91852 7.45339 9.91852 8.23674Z" fill="white"/>
    <path d="M10.26 8.32092C10.26 8.84085 10.6813 9.26225 11.2012 9.26225C11.7217 9.26225 12.1429 8.84085 12.1429 8.32092C12.1429 7.80098 11.7217 7.37919 11.2012 7.37919C10.6813 7.37919 10.26 7.80098 10.26 8.32092Z" fill="#414042"/>
</svg>
