<?xml version="1.0" encoding="utf-8"?>
<svg width="20.036676px" height="17.871622px" viewBox="0 0 20.036676 17.871622" version="1.1" xmlns:xlink="http://www.w3.org/1999/xlink" xmlns="http://www.w3.org/2000/svg">
  <g id="jsx_13_gray_20x20" transform="translate(0.4375 0.4375)">
    <path d="M7.79482 8.4983C7.79482 7.51189 8.59445 6.71227 9.58084 6.71227C10.5673 6.71227 11.3669 7.51189 11.3669 8.4983C11.3669 9.4847 10.5673 10.2844 9.58084 10.2844C8.59445 10.2844 7.79482 9.4847 7.79482 8.4983L7.79482 8.4983L7.79482 8.4983L7.79482 8.4983L7.79482 8.4983Z" id="Circle" fill="#6C707E" fill-rule="evenodd" stroke="none" />
    <path d="M0 8.4983C0 6.47787 4.2895 4.83999 9.58084 4.83999C14.8722 4.83999 19.1617 6.47787 19.1617 8.4983C19.1617 10.5187 14.8722 12.1566 9.58084 12.1566C4.2895 12.1566 0 10.5187 0 8.4983L0 8.4983L0 8.4983L0 8.4983L0 8.4983ZM4.79043 0.201036C6.54018 -0.809178 10.1034 2.08669 12.749 6.66913C15.3948 11.2516 16.1211 15.7853 14.3713 16.7956C12.6215 17.8058 9.05834 14.9099 6.41267 10.3275C3.76698 5.745 3.04069 1.21125 4.79043 0.201036L4.79043 0.201036L4.79043 0.201036L4.79043 0.201036L4.79043 0.201036ZM14.3713 0.201036C16.1211 1.21125 15.3948 5.745 12.749 10.3275C10.1034 14.9099 6.54018 17.8058 4.79043 16.7956C3.04069 15.7853 3.76698 11.2516 6.41267 6.66914C9.05835 2.08669 12.6215 -0.809178 14.3713 0.201036L14.3713 0.201036L14.3713 0.201036L14.3713 0.201036L14.3713 0.201036Z" id="Group#1" fill="none" fill-rule="evenodd" stroke="#6C707E" stroke-width="0.875" />
  </g>
</svg>