<?xml version="1.0" encoding="utf-8"?>
<svg width="13px" height="13px" viewBox="0 0 13 13" version="1.1" xmlns:xlink="http://www.w3.org/1999/xlink" xmlns="http://www.w3.org/2000/svg">
  <defs>
    <path d="M0 0L13 0L13 13L0 13L0 0Z" id="path_1" />
    <clipPath id="mask_1">
      <use xlink:href="#path_1" />
    </clipPath>
  </defs>
  <g id="jsx_file">
    <path d="M0 0L13 0L13 13L0 13L0 0Z" id="Background" fill="none" fill-rule="evenodd" stroke="none" />
    <g clip-path="url(#mask_1)">
      <g id="Group" transform="translate(0 3.25)">
        <path d="M0 6.06667L13 6.06667L13 0L0 0L0 6.06667Z" id="Polygon" fill="#F26522" fill-opacity="0.69803923" fill-rule="evenodd" stroke="none" />
        <path d="M1.20908 3.97601C1.40781 4.19284 1.59278 4.33333 1.98192 4.33333C2.43809 4.33333 2.6 3.97601 2.6 3.72459L2.6 0.866667L3.46667 0.866667L3.46667 3.97601C3.46667 4.61036 2.88315 5.2 2.12333 5.2C1.4118 5.2 0.996667 4.99429 0.693334 4.61036L1.20908 3.97601L1.20908 3.97601Z" id="Shape" fill="#231F20" fill-opacity="0.69803923" fill-rule="evenodd" stroke="none" />
        <path d="M11.7 0.866667L10.3133 2.99L11.7 5.2L10.66 5.2L9.75 3.54727L8.84 5.2L7.8 5.2L9.18667 2.99L7.8 0.866667L8.84 0.866667L9.75 2.4388L10.66 0.866667L11.7 0.866667Z" id="Polygon" fill="#231F20" fill-opacity="0.69803923" fill-rule="evenodd" stroke="none" />
        <path d="M5.1764 2.16799C5.1764 1.84865 5.44613 1.73333 5.93233 1.73333C5.93696 1.73333 6.27062 1.73333 6.93333 1.73333L6.93333 0.866667C6.29431 0.866667 5.96498 0.866667 5.94533 0.866667C5.0076 0.866667 4.33333 1.26461 4.33333 2.12333C4.33333 2.87259 4.69695 3.19843 5.60842 3.39393C6.27604 3.53714 6.49667 3.66481 6.49667 3.9416C6.49667 4.21839 6.18664 4.33333 5.60842 4.33333C5.59917 4.33333 5.26081 4.33333 4.59333 4.33333L4.59333 5.2C5.26543 5.2 5.6038 5.2 5.60842 5.2C7.36667 5.2 7.36667 4.33333 7.36667 3.9416C7.36667 3.39393 6.9509 2.96462 6.2042 2.72727C5.4575 2.48992 5.1764 2.48733 5.1764 2.16799L5.1764 2.16799Z" id="Shape" fill="#231F20" fill-opacity="0.69803923" fill-rule="evenodd" stroke="none" />
      </g>
    </g>
  </g>
</svg>