<svg width="16" height="16" viewBox="0 0 16 16" fill="none" xmlns="http://www.w3.org/2000/svg">
    <path d="M5.65735 13.0937C5.06852 13.0937 4.5 12.5663 4.5 11.6373V4.33145C4.5 3.40247 5.06852 2.875 5.65735 2.875C5.93484 2.875 6.17849 2.99309 6.56427 3.20565L12.6623 6.56729C13.2173 6.87433 13.5625 7.35456 13.5625 7.98437C13.5625 8.61419 13.2173 9.09442 12.6623 9.40146L6.56427 12.7631C6.17849 12.9757 5.93484 13.0937 5.65735 13.0937Z" fill="#51C74A"/>
    <rect x="0.875" y="7.71875" width="2.9375" height="0.5625" rx="0.28125" fill="#51C74A"/>
    <rect x="1.25" y="6.28125" width="2.5625" height="0.5625" rx="0.28125" fill="#51C74A"/>
    <rect x="1.9375" y="9.15625" width="1.875" height="0.5625" rx="0.28125" fill="#51C74A"/>
</svg>
