<?xml version="1.0" encoding="UTF-8"?>
<svg width="16px" height="11px" viewBox="0 0 16 11" version="1.1" xmlns="http://www.w3.org/2000/svg" xmlns:xlink="http://www.w3.org/1999/xlink">
    <g id="页面-1" stroke="none" stroke-width="1" fill="none" fill-rule="evenodd">
        <g id="icons_outlined_wifi" fill="#6E6E6E" fill-rule="nonzero">
            <path d="M6.5857864,9.5857864 C6.9477153,9.2238576 7.4477153,9 8,9 C8.5522847,9 9.0522847,9.2238576 9.4142136,9.5857864 L8,11 L6.5857864,9.5857864 Z M10.6870058,8.3129942 C9.999341,7.6253295 9.049341,7.2 8,7.2 C6.950659,7.2 6.000659,7.6253295 5.31299423,8.3129942 L4.46446609,7.4644661 C5.36928813,6.5596441 6.6192881,6 8,6 C9.3807119,6 10.6307119,6.5596441 11.5355339,7.4644661 L10.6870058,8.3129942 Z M12.8083261,6.1916739 C11.5777681,4.9611159 9.8777681,4.2 8,4.2 C6.1222319,4.2 4.42223185,4.9611159 3.19167389,6.1916739 L2.34314575,5.3431458 C3.790861,3.8954305 5.790861,3 8,3 C10.209139,3 12.209139,3.8954305 13.6568542,5.3431458 L12.8083261,6.1916739 Z M14.9296465,4.0703535 C13.1561953,2.29690236 10.7061953,1.2 8,1.2 C5.29380473,1.2 2.84380473,2.29690236 1.07035354,4.0703535 L0.22182541,3.2218254 C2.21243388,1.23121694 4.96243388,0 8,0 C11.0375661,0 13.7875661,1.23121694 15.7781746,3.2218254 L14.9296465,4.0703535 Z" id="Combined-Shape"></path>
        </g>
    </g>
</svg>
