<svg xmlns="http://www.w3.org/2000/svg" width="16" height="16" viewBox="0 0 64 64">
  <path d="M46.167,15.2l4.674-8.1a1.373,1.373,0,0,0,.19-.7,1.4,1.4,0,0,0-2.615-.7l-4.752,8.231A28.6,28.6,0,0,0,32,11.542a28.6,28.6,0,0,0-11.664,2.39L15.584,5.7a1.4,1.4,0,0,0-2.615.7,1.373,1.373,0,0,0,.19.7l4.674,8.1C9.06,20.225,4.31,29.508,4,37H60C59.69,29.508,54.94,20.225,46.167,15.2ZM18,30a2.652,2.652,0,0,1-3-3,2.652,2.652,0,0,1,3-3,2.652,2.652,0,0,1,3,3A2.652,2.652,0,0,1,18,30Zm28,0a2.652,2.652,0,0,1-3-3,2.652,2.652,0,0,1,3-3,2.652,2.652,0,0,1,3,3A2.652,2.652,0,0,1,46,30Z" fill="#3ddc84" fill-opacity=".8"/>
  <path d="M24.114 56H26.2l-4.73-13H19.339L14.6 56h2.09l1.2-3.532h5.025zm-5.681-5.126l1.951-5.739h.045l1.946 5.739zM36.386 56h2.09l-4.73-13H31.611L26.872 56h2.09l1.2-3.532h5.025zm-5.681-5.126l1.951-5.739H32.7l1.946 5.739zM46.294 49.144v-.036A2.882 2.882 0 0048.7 46.27v-.018c0-2.1-1.651-3.252-3.82-3.252h-5.17V56h5.2c2.516 0 4.433-1.183 4.433-3.667v-.018A3.126 3.126 0 0046.294 49.144zM44.4 44.631c1.316 0 2.315.537 2.315 1.864v.019c0 1.5-1.248 2.036-2.766 2.036H41.7V44.631zm2.9 7.6c0 1.565-1.216 2.135-2.793 2.135H41.7V50.09h2.667c1.618 0 2.937.5 2.937 2.126z" fill="#9aa7b0"/>
</svg>
